<?xml version="1.0" encoding="utf-8"?>
<!-- Generator: Adobe Illustrator 16.0.0, SVG Export Plug-In . SVG Version: 6.00 Build 0)  -->
<!DOCTYPE svg PUBLIC "-//W3C//DTD SVG 1.1//EN" "http://www.w3.org/Graphics/SVG/1.1/DTD/svg11.dtd">
<svg version="1.1" id="Layer_1" xmlns="http://www.w3.org/2000/svg" xmlns:xlink="http://www.w3.org/1999/xlink" x="0px" y="0px"
	 width="20px" height="20px" viewBox="0 0 20 20" enable-background="new 0 0 20 20" xml:space="preserve">
<title>halal</title>
<desc>Created with Sketch.</desc>
<g>
	<g>
		<path fill="#FFFFFF" d="M14.83,10.402c1.167,0.001,1.974,0.651,3.019,1.207c0.931,0.379,2.214,0.202,2.214,0.202l-0.806,1.409
			c0,0-1.271-0.248-2.816,0.402c-1.394,0.551-2.676,0.642-3.019,0.604c-0.447,0.038-1.435-0.026-2.013-1.207
			C11.021,11.904,11.006,10,11.006,10V8.793c0,0-0.203,1.372-0.603,2.816c-0.369,0.779-0.526,1.217-1.007,1.812
			c-0.592,0.681-1.417,1.169-2.213,1.407c-1.363,0.331-2.817,0.202-2.817,0.202s1.578-0.514,2.616-1.207
			c1.034-0.629,2.295-1.436,3.019-3.22c0.681-1.899,0.814-4.059,1.006-4.428c0.361-0.249,0.563,0.718,0.604,1.208
			c0.021,0.568,0.201,3.22,0.201,3.22s0.092,2.009,0.806,2.416c0.642,0.232,2.135,0.12,3.02-0.202
			c0.881-0.226,1.005-0.402,1.005-0.402s-1.7-1.015-2.615-0.604c-0.827,0.327-1.168,0.78-1.208,0.804
			C12.857,12.592,13.586,10.403,14.83,10.402L14.83,10.402L14.83,10.402z M5.774,7.183c0,0-0.243,1.632,0.603,2.012
			c0.866,0.454,1.24,0.408,1.61,1.007c0.477,0.415,1.006,1.811,1.006,1.811s0.2-1.35-0.403-2.616
			C7.914,8.251,5.774,7.183,5.774,7.183L5.774,7.183L5.774,7.183z M4.069,5.774l0.795-1.006c0,0,0.119,0.568,0.306,0.87
			c0.187,0.302,0.489,0.539,0.489,0.539S5.262,6.798,5.262,7.428c0,0.629,0.545,2.572,0.545,3.595c0,0,0.023,0.613-0.038,1.711
			c0,0-0.007,0.555-0.677,1.482c0,0-0.861,1.016-2.614,1.016c0,0-1.337-0.075-2.015-0.805c0,0-0.412-0.352-0.526-1.192
			c0,0,0-0.418,0.186-0.997c0,0,0.248-0.62,0.765-1.433c0,0-0.756,1.439-0.425,2.283c0.331,0.845,1.408,1.034,2.015,1.034
			s1.391-0.214,1.99-0.661c0.701-0.523,0.624-1.706,0.624-2.438c0-0.73-0.362-2.557-0.362-2.557
			C4.657,7.969,4.319,6.868,4.268,6.579C4.217,6.29,4.069,5.774,4.069,5.774L4.069,5.774L4.069,5.774z"/>
	</g>
</g>
</svg>
