<?xml version="1.0" standalone="no"?>
<!DOCTYPE svg PUBLIC "-//W3C//DTD SVG 20010904//EN"
 "http://www.w3.org/TR/2001/REC-SVG-20010904/DTD/svg10.dtd">
<svg version="1.0" xmlns="http://www.w3.org/2000/svg"
 width="512.000000pt" height="512.000000pt" viewBox="0 0 512.000000 512.000000"
 preserveAspectRatio="xMidYMid meet">

<g transform="translate(0.000000,512.000000) scale(0.100000,-0.100000)"
fill="#000000" stroke="none">
<path d="M2370 5114 c-19 -2 -78 -9 -130 -15 -548 -62 -1083 -325 -1489 -730
-405 -406 -651 -906 -732 -1489 -20 -143 -18 -527 4 -670 89 -580 328 -1058
728 -1459 658 -657 1607 -906 2504 -654 929 260 1646 1043 1819 1987 156 845
-103 1682 -705 2285 -399 398 -879 639 -1449 726 -100 15 -472 28 -550 19z
m400 -305 c264 -24 536 -101 781 -220 1202 -587 1633 -2085 928 -3222 -55 -87
-178 -256 -204 -277 -14 -12 -58 28 -376 346 l-359 359 0 335 c0 184 -5 387
-10 450 -17 208 -77 363 -209 542 -40 53 -85 125 -101 160 -55 123 -60 174
-60 648 l0 430 -600 0 -599 0 -3 -462 c-2 -255 -7 -471 -12 -482 -8 -15 -72
45 -437 410 -236 236 -429 432 -429 436 0 11 137 118 232 181 431 286 941 414
1458 366z m90 -899 l0 -150 -300 0 -300 0 0 150 0 150 300 0 300 0 0 -150z
m-1531 -334 l463 -463 -35 -49 c-45 -64 -99 -172 -125 -254 -46 -142 -47 -159
-47 -1050 l0 -845 975 0 975 0 5 223 5 222 249 -249 c150 -150 246 -253 242
-260 -13 -21 -187 -150 -276 -206 -347 -214 -706 -324 -1115 -342 -687 -29
-1371 274 -1816 806 -290 346 -478 795 -518 1241 -48 516 78 1017 363 1455 59
90 172 235 184 235 4 0 216 -209 471 -464z m1545 -171 c8 -72 51 -205 91 -285
18 -36 66 -110 107 -166 119 -162 158 -270 158 -436 l0 -98 -30 0 c-133 0
-346 41 -599 114 -271 80 -407 107 -608 122 -51 3 -93 8 -93 9 0 1 8 26 19 56
29 84 57 136 133 239 39 52 85 124 103 160 40 80 83 213 91 285 l7 55 307 0
307 0 7 -55z m-829 -1055 c133 -15 278 -46 443 -95 290 -86 444 -117 642 -131
l100 -7 0 -453 0 -454 -670 0 -670 0 0 575 0 575 33 0 c17 0 73 -5 122 -10z"/>
</g>
</svg>
