<?xml version="1.0" encoding="utf-8"?>
<!-- Generator: Adobe Illustrator 16.0.0, SVG Export Plug-In . SVG Version: 6.00 Build 0)  -->
<!DOCTYPE svg PUBLIC "-//W3C//DTD SVG 1.1 Tiny//EN" "http://www.w3.org/Graphics/SVG/1.1/DTD/svg11-tiny.dtd">
<svg version="1.1" baseProfile="tiny" id="Layer_1" xmlns="http://www.w3.org/2000/svg" xmlns:xlink="http://www.w3.org/1999/xlink"
	 x="0px" y="0px" width="20px" height="20px" viewBox="0 0 20 20" xml:space="preserve">
<circle fill="none" stroke="#FFFFFF" stroke-width="0.964" stroke-miterlimit="10" cx="10" cy="10" r="9.5"/>
<path fill="none" d="M9.126,12.152c-0.045-0.754-0.542-1.336-1.109-1.302"/>
<g>
	<path fill="#FFFFFF" d="M4.731,7.421C4.743,7.62,4.776,7.829,4.829,8.037C4.88,8.233,4.952,8.44,5.044,8.635
		C5.137,8.84,5.249,9.033,5.38,9.226C5.511,9.408,5.662,9.589,5.833,9.76c0.096,0.094,0.192,0.189,0.307,0.272
		c0.053,0.046,0.116,0.093,0.178,0.129c0.043,0.047,0.096,0.084,0.147,0.111c0.114,0.074,0.229,0.147,0.353,0.2
		c0.114,0.063,0.237,0.116,0.35,0.159c0.143,0.052,0.287,0.103,0.438,0.134c0.144,0.042,0.285,0.063,0.436,0.075
		c0.082,0.015,0.172,0.02,0.262,0.024c0.311,0.011,0.61-0.026,0.895-0.123c-0.136,0.409-0.159,0.86-0.091,1.327
		c0.031,0.199,0.083,0.406,0.156,0.611c0.072,0.197,0.164,0.402,0.276,0.596c0.055,0.086,0.111,0.184,0.177,0.279
		c0.131,0.184,0.282,0.363,0.452,0.535c0.096,0.094,0.202,0.188,0.297,0.271c0.306,0.252,0.647,0.453,0.998,0.592
		c0.809,0.322,1.662,0.322,2.344-0.02c-0.648-0.1-1.359-0.27-1.668-0.58c-0.619-0.625-0.609-1.639,0.014-2.256
		c0.625-0.617,1.639-0.609,2.256,0.016c0.289,0.293,0.449,0.955,0.545,1.57c0.141-0.338,0.188-0.721,0.164-1.102
		c-0.012-0.199-0.045-0.408-0.096-0.615c-0.053-0.197-0.125-0.402-0.215-0.598c-0.094-0.205-0.205-0.399-0.336-0.592
		c-0.133-0.183-0.283-0.364-0.453-0.534c-0.096-0.095-0.201-0.188-0.309-0.272c-0.031-0.038-0.072-0.066-0.125-0.092
		c-0.178-0.14-0.355-0.25-0.551-0.348c-0.115-0.073-0.229-0.126-0.352-0.159c-0.143-0.062-0.285-0.104-0.438-0.134
		c-0.143-0.042-0.285-0.063-0.436-0.074c-0.08,0.005-0.16,0-0.242-0.016c0,0-0.01-0.009-0.02-0.009
		c-0.419-0.105-0.744-0.527-0.774-1.046c-0.003-0.05-0.016-0.099-0.03-0.159c-0.032-0.199-0.084-0.406-0.157-0.612
		c-0.001-0.03-0.013-0.049-0.024-0.079c-0.024-0.068-0.059-0.146-0.103-0.214c-0.035-0.078-0.069-0.146-0.114-0.224
		c-0.169-0.32-0.388-0.628-0.665-0.902C9.584,5.809,9.489,5.725,9.384,5.641C9.068,5.39,8.736,5.189,8.387,5.049
		C7.31,4.623,6.155,4.751,5.417,5.497C4.917,5.998,4.688,6.692,4.731,7.421z"/>
	<path fill="#FFFFFF" d="M4.731,7.421C4.743,7.62,4.776,7.829,4.829,8.037C4.88,8.233,4.952,8.44,5.044,8.635
		C5.137,8.84,5.249,9.033,5.38,9.226C5.511,9.408,5.662,9.589,5.833,9.76c0.096,0.094,0.192,0.189,0.307,0.272
		c0.053,0.046,0.116,0.093,0.178,0.129c0.043,0.047,0.096,0.084,0.147,0.111c0.114,0.074,0.229,0.147,0.353,0.2
		c0.114,0.063,0.237,0.116,0.35,0.159c0.143,0.052,0.287,0.103,0.438,0.134c0.144,0.042,0.285,0.063,0.436,0.075
		c0.08-0.005,0.161,0,0.241,0.016c0.011,0,0.011,0,0.021,0.009c0.417,0.105,0.743,0.526,0.773,1.045
		c0.003,0.051,0.017,0.109,0.03,0.158c0.031,0.199,0.083,0.406,0.156,0.611c0.002,0.031,0.013,0.051,0.025,0.08
		c0.07,0.176,0.151,0.352,0.251,0.516c0.055,0.086,0.111,0.184,0.177,0.279c0.131,0.184,0.282,0.363,0.452,0.535
		c0.096,0.094,0.202,0.188,0.297,0.271c0.316,0.252,0.647,0.453,0.998,0.592c0.809,0.322,1.662,0.322,2.344-0.02
		c-0.648-0.1-1.359-0.27-1.668-0.58c-0.619-0.625-0.609-1.639,0.014-2.256c0.625-0.617,1.639-0.609,2.256,0.016
		c0.289,0.293,0.449,0.955,0.545,1.57c0.141-0.338,0.188-0.721,0.164-1.102c-0.012-0.199-0.045-0.408-0.096-0.615
		c-0.053-0.197-0.125-0.402-0.215-0.598c-0.094-0.205-0.205-0.399-0.336-0.592c-0.133-0.183-0.283-0.364-0.453-0.534
		c-0.096-0.095-0.201-0.188-0.309-0.272c-0.031-0.038-0.072-0.066-0.125-0.092c-0.178-0.14-0.355-0.25-0.551-0.348
		c-0.115-0.073-0.229-0.126-0.352-0.159c-0.143-0.062-0.285-0.104-0.438-0.134c-0.143-0.042-0.285-0.063-0.436-0.074
		c-0.08,0.005-0.16,0-0.242-0.016c0,0-0.01-0.009-0.02-0.009c-0.312-0.012-0.61,0.026-0.896,0.123
		c0.137-0.408,0.159-0.861,0.091-1.328c-0.032-0.199-0.084-0.406-0.157-0.612c-0.036-0.098-0.082-0.195-0.127-0.293
		c-0.035-0.078-0.069-0.146-0.114-0.224c-0.169-0.32-0.388-0.628-0.665-0.902C9.584,5.809,9.489,5.725,9.384,5.641
		C9.079,5.389,8.736,5.189,8.387,5.049C7.31,4.623,6.155,4.751,5.417,5.497C4.917,5.998,4.688,6.692,4.731,7.421z"/>
</g>
<path fill="#FFFFFF" d="M12.139,14.354c0.309,0.311,1.02,0.48,1.668,0.58c0.676,0.109,1.27,0.125,1.27,0.125s-0.01-0.66-0.123-1.375
	c-0.096-0.615-0.256-1.277-0.545-1.57c-0.617-0.625-1.631-0.633-2.256-0.016C11.529,12.715,11.52,13.729,12.139,14.354z"/>
<path fill="#FFFFFF" d="M5.608,7.879c0.619,0.626,1.628,0.632,2.254,0.015c0.626-0.62,0.634-1.628,0.014-2.255
	C7.259,5.012,4.944,4.935,4.944,4.935S4.99,7.251,5.608,7.879z"/>
<line fill="none" stroke="#FFFFFF" stroke-miterlimit="10" x1="3.245" y1="16.755" x2="7.925" y2="12.074"/>
<line fill="none" stroke="#FFFFFF" stroke-miterlimit="10" x1="11.972" y1="8.029" x2="16.612" y2="3.388"/>
</svg>
