<?xml version="1.0" encoding="utf-8"?>
<!-- Generator: Adobe Illustrator 16.0.0, SVG Export Plug-In . SVG Version: 6.00 Build 0)  -->
<!DOCTYPE svg PUBLIC "-//W3C//DTD SVG 1.1 Tiny//EN" "http://www.w3.org/Graphics/SVG/1.1/DTD/svg11-tiny.dtd">
<svg version="1.1" baseProfile="tiny" id="Layer_1" xmlns="http://www.w3.org/2000/svg" xmlns:xlink="http://www.w3.org/1999/xlink"
	 x="0px" y="0px" width="20px" height="20px" viewBox="0 0 20 20" xml:space="preserve">
<path fill="#FFFFFF" d="M10.563,5.31c-3.302,0-5.182,2.486-5.182,2.486C4.725,8.665,3.457,8.865,2.564,8.241L0.966,7.124
	C0.074,6.5-0.187,6.747,0.387,7.672l0.401,0.646c0.574,0.925,0.587,2.447,0.028,3.381L0.35,12.48
	c-0.559,0.935-0.305,1.162,0.564,0.506l1.381-1.043c0.869-0.656,2.065-0.446,2.658,0.468c0,0,2.005,3.089,5.611,3.089
	c4.124,0,9.437-2.28,9.437-5.09C20,7.59,14.688,5.31,10.563,5.31z M15.903,9.646c-0.299,0-0.541-0.248-0.541-0.553
	s0.242-0.552,0.541-0.552c0.298,0,0.54,0.247,0.54,0.552S16.201,9.646,15.903,9.646z"/>
</svg>
