<?xml version="1.0" encoding="utf-8"?>
<!-- Generator: Adobe Illustrator 16.0.0, SVG Export Plug-In . SVG Version: 6.00 Build 0)  -->
<!DOCTYPE svg PUBLIC "-//W3C//DTD SVG 1.1//EN" "http://www.w3.org/Graphics/SVG/1.1/DTD/svg11.dtd">
<svg version="1.1" xmlns="http://www.w3.org/2000/svg" xmlns:xlink="http://www.w3.org/1999/xlink" x="0px" y="0px" width="20px"
	 height="20px" viewBox="0 0 20 20" enable-background="new 0 0 20 20" xml:space="preserve">
<g id="Layer_1">
	<circle fill="none" stroke="#FFFFFF" stroke-width="0.964" stroke-miterlimit="10" cx="10" cy="10" r="9.5"/>
</g>
<g id="Layer_2">
	<g>
		<g>
			<g>
				<path fill="#FFFFFF" d="M14.082,11.504c-1.297-0.977-3.056-0.828-3.933,0.334c-0.878,1.164-0.538,2.897,0.759,3.875
					c1.297,0.979,3.056,0.828,3.934-0.333C15.719,14.218,15.379,12.484,14.082,11.504z M13.655,14.484
					c-0.435,0.574-1.303,0.648-1.944,0.164c-0.641-0.483-0.811-1.341-0.377-1.913c0.436-0.576,1.306-0.648,1.945-0.167
					C13.92,13.052,14.09,13.909,13.655,14.484z"/>
			</g>
		</g>
		<g>
			<g>
				<path fill="#FFFFFF" d="M8.745,5.834c-0.728-1.452-2.37-2.102-3.672-1.45C3.77,5.036,3.305,6.74,4.031,8.193
					c0.726,1.452,2.371,2.101,3.673,1.449C9.007,8.991,9.472,7.286,8.745,5.834z M7.039,8.312C6.395,8.635,5.583,8.314,5.225,7.597
					c-0.359-0.718-0.131-1.56,0.515-1.883c0.643-0.322,1.455,0,1.813,0.718C7.911,7.148,7.682,7.991,7.039,8.312z"/>
			</g>
		</g>
		<g>
			<g>
				<path fill="#FFFFFF" d="M10.47,9.406C9.367,8.213,7.608,8.05,6.538,9.039c-1.067,0.989-1.04,2.755,0.063,3.947
					c1.104,1.191,2.864,1.356,3.932,0.366C11.602,12.363,11.573,10.597,10.47,9.406z M9.523,12.263
					c-0.529,0.487-1.398,0.405-1.942-0.182c-0.545-0.59-0.56-1.462-0.032-1.951c0.528-0.489,1.397-0.408,1.942,0.182
					C10.037,10.9,10.052,11.772,9.523,12.263z"/>
			</g>
		</g>
		
			<rect x="5.261" y="2.607" transform="matrix(-0.9963 -0.0862 0.0862 -0.9963 11.3067 7.937)" fill="#FFFFFF" width="1.127" height="2.234"/>
	</g>
	<line fill="none" stroke="#FFFFFF" stroke-miterlimit="10" x1="3.188" y1="16.812" x2="6.409" y2="13.592"/>
	<line fill="none" stroke="#FFFFFF" stroke-miterlimit="10" x1="10.909" y1="9.091" x2="16.773" y2="3.227"/>
</g>
</svg>
